<?xml version="1.0" encoding="utf-8"?>
<!-- Generator: Adobe Illustrator 21.0.0, SVG Export Plug-In . SVG Version: 6.00 Build 0)  -->
<svg version="1.1" id="Layer_1" xmlns="http://www.w3.org/2000/svg" xmlns:xlink="http://www.w3.org/1999/xlink" x="0px" y="0px"
	 width="3000px" height="2000px" viewBox="0 0 3000 2000" style="enable-background:new 0 0 3000 2000;" xml:space="preserve">
<style type="text/css">
	.st0{fill:#52132E;}
	.st1{fill:#601B3C;}
	.st2{fill:#75254F;}
	.st3{fill:#893063;}
	.st4{fill:#83487E;}
	.st5{fill:#783D75;}
	.st6{fill:#662C5C;}
	.st7{fill:#440D27;}
	.st8{fill:#3A0923;}
	.st9{fill:#FED0AF;}
	.st10{fill:#FDFFFC;}
	.st11{fill:#E8B592;}
	.st12{fill:#CE9874;}
	.st13{fill:#BE5D4C;}
	.st14{fill:#CE6E61;}
	.st15{fill:#732533;}
	.st16{fill:#FDBC82;}
	.st17{fill:#BE4B59;}
	.st18{fill:#FEF4FF;}
	.st19{fill:#CACACA;}
	.st20{fill:#4D173B;}
	.st21{fill:#E1E6E9;}
	.st22{fill:#CFB673;}
	.st23{fill:#FEE7B5;}
	.st24{fill:#F4D585;}
	.st25{fill:#400D2C;}
	.st26{fill:#E9E3E3;}
	.st27{fill:#0A192C;}
	.st28{fill:#030514;}
	.st29{fill:#1C324A;}
	.st30{fill:#FFFDFE;}
	.st31{fill:#EAC97F;}
	.st32{fill:#C6AA6B;}
	.st33{fill:#5D1D3F;}
	.st34{fill:#4F1D49;}
	.st35{fill:#6D266D;}
	.st36{fill:#3A1237;}
	.st37{fill:#4E1333;}
	.st38{fill:#703B69;}
	.st39{fill:#461028;}
</style>
<g>
	<g>
		<g>
			<rect class="st0" width="3000" height="2000"/>
			
				<ellipse transform="matrix(0.9755 -0.2201 0.2201 0.9755 -183.3158 354.6724)" class="st1" cx="1500" cy="1000" rx="1132.7" ry="816.2"/>
			
				<ellipse transform="matrix(0.9755 -0.2201 0.2201 0.9755 -183.3158 354.6724)" class="st2" cx="1500" cy="1000" rx="872.4" ry="628.7"/>
			
				<ellipse transform="matrix(0.9755 -0.2201 0.2201 0.9755 -183.3158 354.6724)" class="st3" cx="1500" cy="1000" rx="614.3" ry="442.7"/>
		</g>
		<g>
			<g>
				<rect x="552" y="245" class="st4" width="720.8" height="396.3"/>
				
					<rect x="743" y="111.5" transform="matrix(-1.836970e-16 1 -1 -1.836970e-16 1355.564 -469.2518)" class="st5" width="338.8" height="663.4"/>
				<polygon class="st6" points="580.7,612.6 1244.1,273.7 1244.1,612.6 				"/>
			</g>
			<path class="st7" d="M2569.7,1761H405.6c-24.7,0-44.6-20-44.6-44.6v0c0-24.7,20-44.6,44.6-44.6h2164.1c24.7,0,44.6,20,44.6,44.6
				v0C2614.4,1741,2594.4,1761,2569.7,1761z"/>
			<path class="st8" d="M2607.6,1692.7c-4.8,19.4-22.4,33.8-43.3,33.8H400.2c-16,0-30-8.4-37.8-21c-0.9,3.5-1.3,7.1-1.3,10.8l0,0
				c0,24.7,20,44.6,44.6,44.6h2164.1c24.7,0,44.6-20,44.6-44.6l0,0C2614.4,1707.7,2611.9,1699.6,2607.6,1692.7z"/>
			<g>
				<rect x="1433.9" y="245" class="st4" width="963.5" height="367.8"/>
				<rect x="1452.7" y="263.8" class="st5" width="679.2" height="330.2"/>
				<rect x="2150.7" y="263.8" class="st5" width="225.6" height="330.2"/>
				<g>
					<path class="st6" d="M1561.7,462c-3.6-4.9-5.7-10.7-6.1-16.8l-3.3-55.1h-14.9h-14.9l-3.3,55.1c-0.4,6.1-2.5,11.9-6.1,16.8
						l-8.7,11.9c-3,4-4.5,8.9-4.5,13.9v96.7c0,5.1,4.1,9.2,9.2,9.2h28.4h28.4c5.1,0,9.2-4.1,9.2-9.2v-96.7c0-5-1.6-9.9-4.5-13.9
						L1561.7,462z"/>
					<path class="st4" d="M1552.7,378.9H1522c-3.1,0-5.5,2.5-5.5,5.5c0,3.1,2.5,5.5,5.5,5.5h30.7c3.1,0,5.5-2.5,5.5-5.5
						C1558.3,381.4,1555.8,378.9,1552.7,378.9z"/>
					<rect x="1499.8" y="503.9" class="st4" width="75.1" height="57.2"/>
				</g>
				<g>
					<path class="st6" d="M1690.5,462c-3.6-4.9-5.7-10.7-6.1-16.8l-3.3-55.1h-14.9h-14.9l-3.3,55.1c-0.4,6.1-2.5,11.9-6.1,16.8
						l-8.7,11.9c-3,4-4.5,8.9-4.5,13.9v96.7c0,5.1,4.1,9.2,9.2,9.2h28.4h28.4c5.1,0,9.2-4.1,9.2-9.2v-96.7c0-5-1.6-9.9-4.5-13.9
						L1690.5,462z"/>
					<path class="st4" d="M1681.6,378.9h-30.7c-3.1,0-5.5,2.5-5.5,5.5c0,3.1,2.5,5.5,5.5,5.5h30.7c3.1,0,5.5-2.5,5.5-5.5
						C1687.1,381.4,1684.7,378.9,1681.6,378.9z"/>
					<rect x="1628.7" y="503.9" class="st4" width="75.1" height="57.2"/>
				</g>
				<g>
					<path class="st6" d="M1819.4,462c-3.6-4.9-5.7-10.7-6.1-16.8L1810,390h-14.9h-14.9l-3.3,55.1c-0.4,6.1-2.5,11.9-6.1,16.8
						l-8.7,11.9c-3,4-4.5,8.9-4.5,13.9v96.7c0,5.1,4.1,9.2,9.2,9.2h28.4h28.4c5.1,0,9.2-4.1,9.2-9.2v-96.7c0-5-1.6-9.9-4.5-13.9
						L1819.4,462z"/>
					<path class="st4" d="M1810.5,378.9h-30.7c-3.1,0-5.5,2.5-5.5,5.5c0,3.1,2.5,5.5,5.5,5.5h30.7c3.1,0,5.5-2.5,5.5-5.5
						C1816,381.4,1813.5,378.9,1810.5,378.9z"/>
					<rect x="1757.5" y="503.9" class="st4" width="75.1" height="57.2"/>
				</g>
				<g>
					<path class="st6" d="M1948.3,462c-3.6-4.9-5.7-10.7-6.1-16.8l-3.3-55.1H1924H1909l-3.3,55.1c-0.4,6.1-2.5,11.9-6.1,16.8
						l-8.7,11.9c-3,4-4.5,8.9-4.5,13.9v96.7c0,5.1,4.1,9.2,9.2,9.2h28.4h28.4c5.1,0,9.2-4.1,9.2-9.2v-96.7c0-5-1.6-9.9-4.5-13.9
						L1948.3,462z"/>
					<path class="st4" d="M1939.3,378.9h-30.7c-3.1,0-5.5,2.5-5.5,5.5c0,3.1,2.5,5.5,5.5,5.5h30.7c3.1,0,5.5-2.5,5.5-5.5
						C1944.9,381.4,1942.4,378.9,1939.3,378.9z"/>
					<rect x="1886.4" y="503.9" class="st4" width="75.1" height="57.2"/>
				</g>
				<g>
					<path class="st6" d="M2077.2,462c-3.6-4.9-5.7-10.7-6.1-16.8l-3.3-55.1h-14.9h-14.9l-3.3,55.1c-0.4,6.1-2.5,11.9-6.1,16.8
						l-8.7,11.9c-3,4-4.5,8.9-4.5,13.9v96.7c0,5.1,4.1,9.2,9.2,9.2h28.4h28.4c5.1,0,9.2-4.1,9.2-9.2v-96.7c0-5-1.6-9.9-4.5-13.9
						L2077.2,462z"/>
					<path class="st4" d="M2068.2,378.9h-30.7c-3.1,0-5.5,2.5-5.5,5.5c0,3.1,2.5,5.5,5.5,5.5h30.7c3.1,0,5.5-2.5,5.5-5.5
						C2073.8,381.4,2071.3,378.9,2068.2,378.9z"/>
					<rect x="2015.3" y="503.9" class="st4" width="75.1" height="57.2"/>
				</g>
				<g>
					<path class="st6" d="M2287.8,462c-3.6-4.9-5.7-10.7-6.1-16.8l-3.3-55.1h-14.9h-14.9l-3.3,55.1c-0.4,6.1-2.5,11.9-6.1,16.8
						l-8.7,11.9c-3,4-4.5,8.9-4.5,13.9v96.7c0,5.1,4.1,9.2,9.2,9.2h28.4h28.4c5.1,0,9.2-4.1,9.2-9.2v-96.7c0-5-1.6-9.9-4.5-13.9
						L2287.8,462z"/>
					<path class="st4" d="M2278.8,378.9h-30.7c-3.1,0-5.5,2.5-5.5,5.5c0,3.1,2.5,5.5,5.5,5.5h30.7c3.1,0,5.5-2.5,5.5-5.5
						C2284.4,381.4,2281.9,378.9,2278.8,378.9z"/>
					<rect x="2225.9" y="503.9" class="st4" width="75.1" height="57.2"/>
				</g>
			</g>
			<g>
				<path class="st9" d="M1443.8,918.2c-18.4,0-33.4,15.9-33.4,35.6v121.7c0,19.7,14.9,35.6,33.4,35.6c18.4,0,33.4-15.9,33.4-35.6
					V953.8C1477.2,934.1,1462.3,918.2,1443.8,918.2z"/>
				<path class="st10" d="M1442.7,800.9L1442.7,800.9c-24.3,0-44.1,21.1-44.1,47V925c0,26,19.7,47,44.1,47h0
					c24.3,0,44.1-21.1,44.1-47v-77.1C1486.8,822,1467.1,800.9,1442.7,800.9z"/>
				<path class="st10" d="M1641.8,806.7l0.4-0.4h-5.9h-144.2h-6.9l0.5,0.5c-24.2,3.5-42.9,26.7-42.9,54.8v280.9h242.9V861.7
					C1685.7,833.2,1666.5,809.8,1641.8,806.7z"/>
				<path class="st11" d="M1532.5,798.2c0,18.1,14.6,32.7,32.7,32.7c18.1,0,32.7-14.6,32.7-32.7v-80.8h-65.4V798.2z"/>
				<circle class="st11" cx="1469.1" cy="651.1" r="21"/>
				<circle class="st12" cx="1469.1" cy="651.1" r="8.9"/>
				<path class="st9" d="M1469.1,706.9c0,48.3,39.2,87.5,87.5,87.5h0c48.3,0,87.5-39.2,87.5-87.5V593.3h-175V706.9z"/>
				<path class="st11" d="M1476.7,706.9V593.3h-7.6v113.7c0,48.3,39.2,87.5,87.5,87.5h0c1.3,0,2.6,0,3.8-0.1
					C1513.8,792.3,1476.7,754,1476.7,706.9z"/>
				<g>
					<g>
						<g>
							<path class="st13" d="M1655.4,591.8h-16.6v69.3h16.1c10.5,0,19.1-8.5,19.1-19.1v-31.6C1674,600.1,1665.7,591.8,1655.4,591.8z
								"/>
						</g>
						<g>
							<path class="st13" d="M1505.1,516h-21.4c-24.5,0-44.4,19.9-44.4,44.4v0c0,24.5,19.9,44.4,44.4,44.4h21.4
								c24.5,0,44.4-19.9,44.4-44.4v0C1549.5,535.9,1529.6,516,1505.1,516z"/>
						</g>
						<g>
							<path class="st13" d="M1629.8,556h-121.4v48.8h146.1v-24.1C1654.5,567.1,1643.4,556,1629.8,556z"/>
						</g>
						<g>
							<circle class="st13" cx="1638.2" cy="604.6" r="12.8"/>
						</g>
						<g>
							<path class="st14" d="M1500.7,525h-12.6c-14.4,0-26.1,8.1-26.1,18v0c0,10,11.7,18,26.1,18h12.6c14.4,0,26.1-8.1,26.1-18v0
								C1526.8,533.1,1515.1,525,1500.7,525z"/>
						</g>
					</g>
				</g>
				<circle class="st9" cx="1644" cy="651.1" r="21"/>
				<path class="st15" d="M1502.4,650.5c-7.5,0-13.5,6-13.5,13.5c0,1.1,0.2,2.3,0.4,3.3c1.5-5.8,6.8-10.2,13.1-10.2
					c6.3,0,11.6,4.3,13.1,10.2c0.3-1.1,0.4-2.2,0.4-3.3C1515.9,656.6,1509.9,650.5,1502.4,650.5z"/>
				<path class="st15" d="M1581.4,650.5c-7.5,0-13.5,6-13.5,13.5c0,1.1,0.2,2.3,0.4,3.3c1.5-5.8,6.8-10.2,13.1-10.2
					c6.3,0,11.6,4.3,13.1,10.2c0.3-1.1,0.4-2.2,0.4-3.3C1594.9,656.6,1588.9,650.5,1581.4,650.5z"/>
				<circle class="st16" cx="1644" cy="651.1" r="8.9"/>
				<g>
					<path class="st17" d="M1554.9,757.4L1554.9,757.4c20.9,0,37.8-16.9,37.8-37.8h-75.7C1517.1,740.4,1534,757.4,1554.9,757.4z"/>
					<path class="st18" d="M1554.9,738.5c14,0,26.2-7.6,32.8-18.9h-65.5C1528.7,730.8,1540.9,738.5,1554.9,738.5z"/>
				</g>
				<path class="st9" d="M1701.1,878.1c-18.4,0-33.4,15.9-33.4,35.6v121.7c0,19.7,14.9,35.6,33.4,35.6c18.4,0,33.4-15.9,33.4-35.6
					V913.7C1734.5,894,1719.6,878.1,1701.1,878.1z"/>
				<rect x="1560.1" y="830.9" class="st19" width="8.1" height="311.6"/>
				<path class="st10" d="M1700.3,800.9L1700.3,800.9c-24.3,0-44.1,21.1-44.1,47V925c0,26,19.7,47,44.1,47h0
					c24.3,0,44.1-21.1,44.1-47v-77.1C1744.4,822,1724.6,800.9,1700.3,800.9z"/>
				<path class="st10" d="M1559.8,843.9l0.9-0.9c5-5,5-13.2,0-18.2l-22.9-22.9c-5-5-13.2-5-18.2,0l-0.9,0.9c-5,5-5,13.2,0,18.2
					l22.9,22.9C1546.6,848.9,1554.7,848.9,1559.8,843.9z"/>
				<path class="st10" d="M1586.8,843.9l22.9-22.9c5-5,5-13.2,0-18.2l-0.9-0.9c-5-5-13.2-5-18.2,0l-23,22.9c-5,5-5,13.2,0,18.2
					l0.9,0.9C1573.7,848.9,1581.8,848.9,1586.8,843.9z"/>
				<g>
					<g>
						<path class="st20" d="M1563,846.8l-29-17.2c-3.2-1.9-7.2,0.4-7.2,4.1V864c0,3.7,4,6,7.2,4.1l29-17.2
							C1564.6,850,1564.6,847.8,1563,846.8z"/>
						<path class="st20" d="M1590.8,831.8l-25.5,15.1c-1.6,0.9-1.6,3.2,0,4.1l25.5,15.1c4.8,2.8,10.8-0.6,10.8-6.1v-22
							C1601.6,832.4,1595.6,828.9,1590.8,831.8z"/>
					</g>
				</g>
			</g>
			<g>
				<path class="st21" d="M967.2,1066.2c-7.2,0-13-6.1-13-13.7v-119c0-7.6,5.8-13.7,13-13.7h63.6c7.2,0,13,6.1,13,13.7v119
					c0,7.6-5.8,13.7-13,13.7H967.2z"/>
				<path class="st22" d="M967.2,1057c-2.1,0-3.9-2.1-3.9-4.6v-28.7h71.3v28.7c0,2.5-1.7,4.6-3.9,4.6H967.2z"/>
				<path class="st23" d="M963.3,930.3c0-2.5,1.7-4.6,3.9-4.6h63.6c2.1,0,3.9,2.1,3.9,4.6V959h-71.3V930.3z"/>
				<rect x="963.3" y="959" class="st24" width="71.3" height="64.8"/>
				<path class="st21" d="M940.9,1034.3h17.5v16h-17.5c-11.6,0-21-9.1-21-20.4v-74c0-11.2,9.4-20.4,21-20.4h17.5v16h-17.5
					c-2.7,0-5,2-5,4.4v74C936,1032.4,938.2,1034.3,940.9,1034.3z"/>
				<circle class="st23" cx="1019.6" cy="928.1" r="15"/>
				<circle class="st23" cx="1004.7" cy="932" r="12.8"/>
			</g>
			<g>
				<rect x="1045.1" y="1146.1" class="st4" width="1406" height="544"/>
				<rect x="547.6" y="1146.1" class="st5" width="531.4" height="544"/>
				<rect x="523.3" y="1119.3" class="st5" width="1952.7" height="26.8"/>
				<rect x="489.6" y="1066.2" class="st5" width="2020.9" height="53.2"/>
				<rect x="523.3" y="1119.3" class="st6" width="573.5" height="26.8"/>
				<rect x="1096.8" y="1066.2" class="st4" width="1413.6" height="53.2"/>
			</g>
			<g>
				<path class="st16" d="M1414.1,1555.2v-339.1c0-25.2-19.1-45.7-42.7-45.7l0,0c-23.6,0-42.7,20.5-42.7,45.7v339.1
					c0,29.9,19.1,54.2,42.7,54.2C1395,1609.4,1414.1,1585.1,1414.1,1555.2z"/>
				<path class="st16" d="M1322.5,1558.8v-316.9c0-23.6-19.1-42.7-42.7-42.7l0,0c-23.6,0-42.7,19.1-42.7,42.7v316.9
					c0,28,19.1,50.6,42.7,50.6C1303.4,1609.4,1322.5,1586.7,1322.5,1558.8z"/>
				<path class="st25" d="M1412.7,1249.8c23.3,0,42.1-21.2,42.1-47.3c0-26.1-18.9-47.3-42.1-47.3h-196.8
					c-19.6,0-35.5,21.2-35.5,47.3v0c0,26.1,15.9,47.3,35.5,47.3H1412.7z"/>
				<path class="st9" d="M1168.8,1104H1295c20.4,0,36.9-16.5,36.9-36.9s-16.5-36.9-36.9-36.9h-126.2c-20.4,0-36.9,16.5-36.9,36.9
					S1148.4,1104,1168.8,1104z"/>
				<path class="st9" d="M1159.3,1102.7c19.7,5.3,40-6.4,45.2-26.1l32.7-121.9c5.3-19.7-6.4-40-26.1-45.2
					c-19.7-5.3-40,6.4-45.2,26.1l-32.7,121.9C1127.9,1077.2,1139.6,1097.4,1159.3,1102.7z"/>
				<path class="st19" d="M1187.4,1000.5L1187.4,1000.5c26,7,52.7-8.5,59.7-34.5l20.7-77.2c7-26-8.5-52.7-34.5-59.7l0,0
					c-26-7-52.7,8.5-59.7,34.5l-20.7,77.2C1146,966.8,1161.4,993.6,1187.4,1000.5z"/>
				<path class="st26" d="M1413.2,1164c4.6,0,8.4-4.1,8.4-9.3V890.8c0-35.7-26.2-64.6-58.5-64.6h-100.1c-32.3,0-58.5,28.9-58.5,64.6
					v263.9c0,5.1,3.7,9.3,8.4,9.3H1413.2z"/>
				<path class="st11" d="M1409.8,735.3V607.9h-149.6v229.4h47.6C1364.1,837.3,1409.8,791.6,1409.8,735.3z"/>
				<path class="st9" d="M1401.2,607.9v127.4c0,56.3-45.7,102-102,102h8.5c56.3,0,102-45.7,102-102V607.9H1401.2z"/>
				<path class="st13" d="M1272.7,1007c46.5,0,84.3-31.9,84.3-71.1V717.7v-21.6h35.9c13.4,0,24.2-10.9,24.2-24.2v-69.5h-0.2
					c-1.5-11.2-11-19.8-22.6-19.8h-121.5h0h-5.4c-1.7,0-3.3,0.2-4.9,0.5c-41.7,4.3-74,34.3-74,70.6v282.2
					C1188.4,975.2,1226.2,1007,1272.7,1007L1272.7,1007z"/>
				<circle class="st11" cx="1366.4" cy="700.2" r="21.2"/>
				<circle class="st12" cx="1366.4" cy="700.2" r="9.4"/>
				<path class="st9" d="M1463.5,1067V940.9c0-20.4-16.5-36.9-36.9-36.9c-20.4,0-36.9,16.5-36.9,36.9V1067
					c0,20.4,16.5,36.9,36.9,36.9C1447,1104,1463.5,1087.4,1463.5,1067z"/>
				<path class="st19" d="M1426.6,1003.7c23.4,0,42.4-19,42.4-42.4v-92.7c0-23.4-19-42.4-42.4-42.4l0,0c-23.4,0-42.4,19-42.4,42.4
					v92.7C1384.2,984.7,1403.2,1003.7,1426.6,1003.7L1426.6,1003.7z"/>
				<path class="st14" d="M1386,638.3h-39.1c-11.3,0-20.4-9.2-20.4-20.4v0c0-11.3,9.2-20.4,20.4-20.4h39.1
					c11.3,0,20.4,9.2,20.4,20.4v0C1406.4,629.2,1397.2,638.3,1386,638.3z"/>
			</g>
			<g>
				<path class="st9" d="M702.8,865.5c-19.1-5.1-38.6,6.2-43.7,25.3l-31.6,117.9c-5.1,19.1,6.2,38.6,25.3,43.7
					c19.1,5.1,38.6-6.2,43.7-25.3l31.6-117.9C733.2,890.2,721.9,870.6,702.8,865.5z"/>
				<path class="st27" d="M724.4,787.7L724.4,787.7c-25.2-6.7-51,8.2-57.8,33.3l-20,74.7c-6.7,25.2,8.2,51,33.3,57.8l0,0
					c25.2,6.7,51-8.2,57.8-33.3l20-74.7C764.5,820.3,749.5,794.5,724.4,787.7z"/>
				<path class="st9" d="M923.7,865.5c19.1-5.1,38.6,6.2,43.7,25.3l31.6,117.9c5.1,19.1-6.2,38.6-25.3,43.7
					c-19.1,5.1-38.6-6.2-43.7-25.3l-31.6-117.9C893.4,890.2,904.7,870.6,923.7,865.5z"/>
				<path class="st27" d="M902.2,787.7L902.2,787.7c25.2-6.7,51,8.2,57.8,33.3l20,74.7c6.7,25.2-8.2,51-33.3,57.8l0,0
					c-25.2,6.7-51-8.2-57.8-33.3l-20-74.7C862.1,820.3,877,794.5,902.2,787.7z"/>
				<g>
					<path class="st11" d="M762.1,795.6h46.1c54.5,0,98.6-44.2,98.6-98.6V573.8H762.1V795.6z"/>
					<path class="st9" d="M900.2,573.8V697c0,54.5-44.2,98.6-98.6,98.6h6.7c54.5,0,98.6-44.2,98.6-98.6V573.8H900.2z"/>
					<path class="st13" d="M896.1,553.3H773.4c-12.2,0-22.1,9.9-22.1,22.1c0,12.2,9.9,22.1,22.1,22.1h122.7
						c12.2,0,22.1-9.9,22.1-22.1C918.2,563.2,908.3,553.3,896.1,553.3z"/>
					<path class="st13" d="M769.6,663.1h89.6c26.3,0,47.7-21.3,47.7-47.7v-42.9H769.6V663.1z"/>
					<path class="st13" d="M777.9,563L777.9,563c-36.7,0-66.5,29.8-66.5,66.5v76.6c0,36.7,29.8,66.5,66.5,66.5h0
						c36.7,0,66.5-29.8,66.5-66.5v-76.6C844.4,592.8,814.6,563,777.9,563z"/>
					<circle class="st11" cx="864.9" cy="663.1" r="20.5"/>
					<circle class="st12" cx="864.9" cy="663.1" r="9.1"/>
				</g>
				<path class="st28" d="M845.8,1641.2c0,27,18.5,48.9,41.3,48.9c22.8,0,41.3-21.9,41.3-48.9v-572.5h-82.7V1641.2z"/>
				<path class="st28" d="M697.3,1641.2c0,27,18.5,48.9,41.3,48.9c22.8,0,41.3-21.9,41.3-48.9v-572.5h-82.7V1641.2z"/>
				<path class="st28" d="M697.3,1163.1c0,17.3,14,31.3,31.3,31.3h168.4c17.3,0,31.3-14,31.3-31.3v-88H697.3V1163.1z"/>
				<path class="st29" d="M866.8,784.9h-107c-34.5,0-62.5,28-62.5,62.5v263.1c0,19.4,15.7,35.1,35.1,35.1h161.7
					c19.4,0,35.1-15.7,35.1-35.1V847.4C929.3,812.9,901.3,784.9,866.8,784.9z"/>
				<path class="st14" d="M880.8,594.3h-50c-8.6,0-15.7-7-15.7-15.7l0,0c0-8.6,7-15.7,15.7-15.7h50c8.6,0,15.7,7,15.7,15.7l0,0
					C896.5,587.3,889.5,594.3,880.8,594.3z"/>
			</g>
			<g>
				<path class="st21" d="M2076.1,919.7h-63.6c-7.2,0-13,6.1-13,13.7v119c0,7.6,5.8,13.7,13,13.7h63.6c7.2,0,13-6.1,13-13.7v-119
					C2089.1,925.9,2083.3,919.7,2076.1,919.7z"/>
				<path class="st22" d="M2008.7,1052.4c0,2.5,1.7,4.6,3.9,4.6h63.6c2.1,0,3.9-2.1,3.9-4.6v-28.7h-71.3V1052.4z"/>
				<rect x="2008.7" y="975.3" class="st24" width="71.3" height="48.5"/>
				<path class="st30" d="M2023.4,931.6c-4.3,0-7.7,3.5-7.7,7.7v105.8c0,4.3,3.5,7.7,7.7,7.7c4.3,0,7.7-3.5,7.7-7.7V939.3
					C2031.1,935,2027.6,931.6,2023.4,931.6z"/>
				<path class="st21" d="M2102.4,935.6h-17.5v16h17.5c2.7,0,5,2,5,4.4v74c0,2.4-2.2,4.4-5,4.4h-17.5v16h17.5c11.6,0,21-9.1,21-20.4
					v-74C2123.3,944.7,2113.9,935.6,2102.4,935.6z"/>
				<rect x="2015.6" y="975.3" class="st31" width="15.4" height="48.5"/>
				<path class="st32" d="M2015.6,1045.1c0,4.3,3.5,7.7,7.7,7.7c4.3,0,7.7-3.5,7.7-7.7v-21.3h-15.4V1045.1z"/>
			</g>
			<g>
				<path class="st28" d="M1900.8,1548.5V1225c0-24.1-18.4-43.6-41.2-43.6h0c-22.7,0-41.2,19.5-41.2,43.6v323.5
					c0,28.5,18.4,51.7,41.2,51.7C1882.4,1600.2,1900.8,1577,1900.8,1548.5z"/>
				<path class="st28" d="M1791.1,1551.4v-305.2c0-22.7-18.4-41.2-41.2-41.2l0,0c-22.7,0-41.2,18.4-41.2,41.2v305.2
					c0,26.9,18.4,48.8,41.2,48.8C1772.6,1600.2,1791.1,1578.3,1791.1,1551.4z"/>
				<path class="st28" d="M1889.6,1253.5c21.3,0,38.7-22.2,38.7-49.5c0-27.4-17.3-49.5-38.7-49.5h-180.7c-18,0-32.6,22.2-32.6,49.5
					v0c0,27.4,14.6,49.5,32.6,49.5H1889.6z"/>
				<g>
					<path class="st9" d="M1688.7,901.3c-18.4-4.9-37.2,6-42.1,24.3l-30.4,113.5c-4.9,18.4,6,37.2,24.3,42.1
						c18.4,4.9,37.2-6,42.1-24.3l30.4-113.5C1718,925.1,1707.1,906.2,1688.7,901.3z"/>
					<path class="st20" d="M1709.5,826.4L1709.5,826.4c-24.2-6.5-49.1,7.9-55.6,32.1l-19.3,72c-6.5,24.2,7.9,49.1,32.1,55.6l0,0
						c24.2,6.5,49.1-7.9,55.6-32.1l19.3-72C1748.1,857.8,1733.7,832.9,1709.5,826.4z"/>
					<path class="st9" d="M1901.5,901.3c18.4-4.9,37.2,6,42.1,24.3l30.4,113.5c4.9,18.4-6,37.2-24.3,42.1
						c-18.4,4.9-37.2-6-42.1-24.3l-30.4-113.5C1872.3,925.1,1883.2,906.2,1901.5,901.3z"/>
					<path class="st20" d="M1880.7,826.4L1880.7,826.4c24.2-6.5,49.1,7.9,55.6,32.1l19.3,72c6.5,24.2-7.9,49.1-32.1,55.6l0,0
						c-24.2,6.5-49.1-7.9-55.6-32.1l-19.3-72C1842.1,857.8,1856.5,832.9,1880.7,826.4z"/>
					<g>
						<path class="st11" d="M1745.8,834h44.4c52.5,0,95-42.5,95-95V620.3h-139.4V834z"/>
						<path class="st9" d="M1873.8,620.3V739c0,52.5-42.5,95-95,95h11.5c52.5,0,95-42.5,95-95V620.3H1873.8z"/>
						<path class="st13" d="M1893.2,600.6h-140c-13.9,0-25.2,11.3-25.2,25.2s11.3,25.2,25.2,25.2h140c13.9,0,25.2-11.3,25.2-25.2
							S1907.1,600.6,1893.2,600.6z"/>
						<path class="st13" d="M1753,706.3h86.3c25.4,0,45.9-20.6,45.9-45.9V619H1753V706.3z"/>
						<path class="st13" d="M1772.1,764.9h5.9c32.1,0,58.1-26,58.1-58.1v-29.2h-64V764.9z"/>
						<path class="st13" d="M1743.1,610L1743.1,610c-35.4,0-64.1,28.7-64.1,64.1v73.8c0,35.4,28.7,64.1,64.1,64.1h0
							c35.4,0,64.1-28.7,64.1-64.1V674C1807.2,638.7,1778.5,610,1743.1,610z"/>
						<circle class="st11" cx="1844.8" cy="706.3" r="19.8"/>
						<circle class="st12" cx="1844.8" cy="706.3" r="8.8"/>
						<path class="st14" d="M1723.9,682.7L1723.9,682.7c-13.3,0-24.1-10.8-24.1-24.1v-7.8c0-13.3,10.8-24.1,24.1-24.1l0,0
							c13.3,0,24.1,10.8,24.1,24.1v7.8C1748,671.9,1737.2,682.7,1723.9,682.7z"/>
					</g>
					<path class="st33" d="M1846.7,823.7h-103.1c-33.2,0-60.2,26.9-60.2,60.2v253.4c0,18.7,15.2,33.8,33.8,33.8H1873
						c18.7,0,33.8-15.2,33.8-33.8V883.9C1906.8,850.7,1879.9,823.7,1846.7,823.7z"/>
				</g>
			</g>
			<g>
				<path class="st28" d="M2128.1,1554.5v-362.7c0-27,19.1-48.9,42.7-48.9l0,0c23.6,0,42.7,21.9,42.7,48.9v362.7
					c0,32-19.1,57.9-42.7,57.9C2147.2,1612.4,2128.1,1586.5,2128.1,1554.5z"/>
				<path class="st28" d="M2242,1561.8v-316.9c0-23.6,19.1-42.7,42.7-42.7h0c23.6,0,42.7,19.1,42.7,42.7v316.9
					c0,28-19.1,50.6-42.7,50.6C2261.2,1612.4,2242,1589.8,2242,1561.8z"/>
				<path class="st28" d="M2166,1252.5c-20.9,0-37.9-24.5-37.9-54.8c0-30.3,17-54.8,37.9-54.8h177.1c17.7,0,32,24.5,32,54.8v0
					c0,30.3-14.3,54.8-32,54.8H2166z"/>
				<g>
					<path class="st9" d="M2362,886.9c19.1-5.1,38.6,6.2,43.7,25.3l31.6,117.9c5.1,19.1-6.2,38.6-25.3,43.7s-38.6-6.2-43.7-25.3
						l-31.6-117.9C2331.7,911.6,2343,892,2362,886.9z"/>
					<path class="st19" d="M2340.5,809.2L2340.5,809.2c25.2-6.7,51,8.2,57.8,33.3l20,74.7c6.7,25.2-8.2,51-33.3,57.8l0,0
						c-25.2,6.7-51-8.2-57.8-33.3l-20-74.7C2300.4,841.8,2315.3,815.9,2340.5,809.2z"/>
					<path class="st9" d="M2141.1,886.9c-19.1-5.1-38.6,6.2-43.7,25.3l-31.6,117.9c-5.1,19.1,6.2,38.6,25.3,43.7s38.6-6.2,43.7-25.3
						l31.6-117.9C2171.5,911.6,2160.2,892,2141.1,886.9z"/>
					<path class="st19" d="M2162.7,809.2L2162.7,809.2c-25.2-6.7-51,8.2-57.8,33.3l-20,74.7c-6.7,25.2,8.2,51,33.3,57.8l0,0
						c25.2,6.7,51-8.2,57.8-33.3l20-74.7C2202.8,841.8,2187.8,815.9,2162.7,809.2z"/>
					<g>
						<path class="st11" d="M2302.7,817h-46.1c-54.5,0-98.6-44.2-98.6-98.6V595.2h144.7V817z"/>
						<path class="st9" d="M2171.6,718.6V595.4h131.1v-0.2H2158v123.2c0,54.5,44.2,98.6,98.6,98.6h7.6
							C2212.6,814,2171.6,771.1,2171.6,718.6z"/>
						<path class="st13" d="M2168.7,574.7h122.7c12.2,0,22.1,9.9,22.1,22.1c0,12.2-9.9,22.1-22.1,22.1h-122.7
							c-12.2,0-22.1-9.9-22.1-22.1C2146.6,584.6,2156.5,574.7,2168.7,574.7z"/>
						<path class="st13" d="M2295.3,684.5h-89.6c-26.3,0-47.7-21.3-47.7-47.7v-42.9h137.3V684.5z"/>
						<path class="st13" d="M2311.2,794.1h-9.5c-51.2,0-92.6-41.5-92.6-92.6v-46.7h102.1V794.1z"/>
						<path class="st13" d="M2305.5,584.5L2305.5,584.5c36.7,0,66.5,29.8,66.5,66.5v76.6c0,36.7-29.8,66.5-66.5,66.5h0
							c-36.7,0-66.5-29.8-66.5-66.5V651C2239.1,614.2,2268.8,584.5,2305.5,584.5z"/>
						<circle class="st11" cx="2199.9" cy="684.5" r="20.5"/>
						<circle class="st12" cx="2199.9" cy="684.5" r="9.1"/>
					</g>
					<path class="st26" d="M2198.1,806.4h107c34.5,0,62.5,28,62.5,62.5v263.1c0,19.4-15.7,35.1-35.1,35.1h-161.7
						c-19.4,0-35.1-15.7-35.1-35.1V868.9C2135.6,834.3,2163.5,806.4,2198.1,806.4z"/>
					<path class="st14" d="M2232.3,626.5h-38c-10.6,0-19.2-8.6-19.2-19.2l0,0c0-10.6,8.6-19.2,19.2-19.2h38
						c10.6,0,19.2,8.6,19.2,19.2l0,0C2251.6,617.9,2243,626.5,2232.3,626.5z"/>
				</g>
			</g>
			<g>
				<g>
					<rect x="1307.7" y="1335.8" class="st34" width="26.5" height="351.3"/>
					<path class="st35" d="M1426.1,1249.8h-210.4c-23.7,0-43,19.2-43,43v0c0,23.7,19.2,43,43,43h210.4c23.7,0,43-19.2,43-43v0
						C1469.1,1269,1449.9,1249.8,1426.1,1249.8z"/>
					<path class="st35" d="M1386.3,1522.5h-130.8c-14.8,0-26.7,12-26.7,26.7c0,14.8,12,26.7,26.7,26.7h130.8
						c14.8,0,26.7-12,26.7-26.7C1413,1534.5,1401.1,1522.5,1386.3,1522.5z"/>
					<rect x="1307.5" y="1336" class="st36" width="26.5" height="23"/>
					<rect x="1307.5" y="1576" class="st36" width="26.5" height="23"/>
				</g>
			</g>
			<g>
				<g>
					<rect x="1790.8" y="1333.9" class="st34" width="26.5" height="351.3"/>
					<path class="st35" d="M1909.3,1248h-210.4c-23.7,0-43,19.2-43,43v0c0,23.7,19.2,43,43,43h210.4c23.7,0,43-19.2,43-43v0
						C1952.3,1267.2,1933,1248,1909.3,1248z"/>
					<path class="st35" d="M1869.5,1520.7h-130.8c-14.8,0-26.7,12-26.7,26.7c0,14.8,12,26.7,26.7,26.7h130.8
						c14.8,0,26.7-12,26.7-26.7C1896.2,1532.7,1884.2,1520.7,1869.5,1520.7z"/>
					<rect x="1790.7" y="1334.2" class="st36" width="26.5" height="23"/>
					<rect x="1790.7" y="1574.1" class="st36" width="26.5" height="23"/>
				</g>
			</g>
			<g>
				<g>
					<rect x="2214.9" y="1333.9" class="st34" width="26.5" height="351.3"/>
					<path class="st35" d="M2333.4,1248h-210.4c-23.7,0-43,19.2-43,43v0c0,23.7,19.2,43,43,43h210.4c23.7,0,43-19.2,43-43v0
						C2376.4,1267.2,2357.1,1248,2333.4,1248z"/>
					<path class="st35" d="M2293.6,1520.7h-130.8c-14.8,0-26.7,12-26.7,26.7c0,14.8,12,26.7,26.7,26.7h130.8
						c14.8,0,26.7-12,26.7-26.7C2320.3,1532.7,2308.3,1520.7,2293.6,1520.7z"/>
					<rect x="2214.8" y="1334.2" class="st36" width="26.5" height="23"/>
					<rect x="2214.8" y="1574.1" class="st36" width="26.5" height="23"/>
				</g>
			</g>
			<g>
				<path class="st37" d="M985.4,575.4L958,602.9v-27.7c-16.2-1.9-28.7-15.7-28.7-32.3v-53.5c0-18,14.6-32.6,32.6-32.6h125.3
					c18,0,32.6,14.6,32.6,32.6v53.5c0,18-14.6,32.6-32.6,32.6H985.4z"/>
				<circle class="st38" cx="1074.1" cy="517.5" r="13.7"/>
				<circle class="st38" cx="974.9" cy="517.5" r="13.7"/>
				<circle class="st38" cx="1024.5" cy="517.5" r="13.7"/>
			</g>
		</g>
	</g>
	<g>
		<g>
			<path class="st39" d="M335.2,286h52c7.2,0,13-5.8,13-13v-15c0-7.2-5.8-13-13-13h-52c-7.2,0-13,5.8-13,13v15
				C322.2,280.2,328,286,335.2,286z"/>
			<path class="st39" d="M335.2,381.8h52c7.2,0,13-5.8,13-13v-15c0-7.2-5.8-13-13-13h-52c-7.2,0-13,5.8-13,13v15
				C322.2,376,328,381.8,335.2,381.8z"/>
			<path class="st39" d="M420.8,286h52c7.2,0,13-5.8,13-13v-15c0-7.2-5.8-13-13-13h-52c-7.2,0-13,5.8-13,13v15
				C407.8,280.2,413.7,286,420.8,286z"/>
			<path class="st39" d="M357.7,333.9h52c7.2,0,13-5.8,13-13v-15c0-7.2-5.8-13-13-13h-52c-7.2,0-13,5.8-13,13v15
				C344.8,328.1,350.6,333.9,357.7,333.9z"/>
			<path class="st39" d="M327.7,333.9c7.2,0,13-5.8,13-13v-15c0-7.2-5.8-13-13-13c-3,0-5.5,2.4-5.5,5.5v30.1
				C322.2,331.5,324.6,333.9,327.7,333.9z"/>
		</g>
	</g>
	<g>
		<g>
			<path class="st39" d="M2652.7,286h-61c-8.4,0-15.2-5.8-15.2-13v-15c0-7.2,6.8-13,15.2-13h61c8.4,0,15.2,5.8,15.2,13v15
				C2667.9,280.2,2661.1,286,2652.7,286z"/>
			<path class="st39" d="M2652.7,381.8h-61c-8.4,0-15.2-5.8-15.2-13v-15c0-7.2,6.8-13,15.2-13h61c8.4,0,15.2,5.8,15.2,13v15
				C2667.9,376,2661.1,381.8,2652.7,381.8z"/>
			<path class="st39" d="M2552.2,286h-61c-8.4,0-15.2-5.8-15.2-13v-15c0-7.2,6.8-13,15.2-13h61c8.4,0,15.2,5.8,15.2,13v15
				C2567.4,280.2,2560.6,286,2552.2,286z"/>
			<path class="st39" d="M2626.2,333.9h-61c-8.4,0-15.2-5.8-15.2-13v-15c0-7.2,6.8-13,15.2-13h61c8.4,0,15.2,5.8,15.2,13v15
				C2641.4,328.1,2634.6,333.9,2626.2,333.9z"/>
			<path class="st39" d="M2661.5,333.9c-8.4,0-15.2-5.8-15.2-13v-15c0-7.2,6.8-13,15.2-13c3.5,0,6.4,2.4,6.4,5.5v30.1
				C2667.9,331.5,2665,333.9,2661.5,333.9z"/>
		</g>
	</g>
	<g>
		<g>
			<path class="st39" d="M2495.7,1323.2h61c8.4,0,15.2,5.8,15.2,13v15c0,7.2-6.8,13-15.2,13h-61c-8.4,0-15.2-5.8-15.2-13v-15
				C2480.5,1329,2487.3,1323.2,2495.7,1323.2z"/>
			<path class="st39" d="M2495.7,1227.4h61c8.4,0,15.2,5.8,15.2,13v15c0,7.2-6.8,13-15.2,13h-61c-8.4,0-15.2-5.8-15.2-13v-15
				C2480.5,1233.3,2487.3,1227.4,2495.7,1227.4z"/>
			<path class="st39" d="M2596.2,1323.2h61c8.4,0,15.2,5.8,15.2,13v15c0,7.2-6.8,13-15.2,13h-61c-8.4,0-15.2-5.8-15.2-13v-15
				C2581,1329,2587.8,1323.2,2596.2,1323.2z"/>
			<path class="st39" d="M2522.2,1275.3h61c8.4,0,15.2,5.8,15.2,13v15c0,7.2-6.8,13-15.2,13h-61c-8.4,0-15.2-5.8-15.2-13v-15
				C2506.9,1281.1,2513.8,1275.3,2522.2,1275.3z"/>
			<path class="st39" d="M2486.9,1275.3c8.4,0,15.2,5.8,15.2,13v15c0,7.2-6.8,13-15.2,13c-3.5,0-6.4-2.4-6.4-5.5v-30.1
				C2480.5,1277.8,2483.3,1275.3,2486.9,1275.3z"/>
		</g>
	</g>
	<g>
		<g>
			<path class="st39" d="M469,1305.5h-52c-7.2,0-13,5.8-13,13v15c0,7.2,5.8,13,13,13h52c7.2,0,13-5.8,13-13v-15
				C482,1311.3,476.1,1305.5,469,1305.5z"/>
			<path class="st39" d="M469,1209.8h-52c-7.2,0-13,5.8-13,13v15c0,7.2,5.8,13,13,13h52c7.2,0,13-5.8,13-13v-15
				C482,1215.6,476.1,1209.8,469,1209.8z"/>
			<path class="st39" d="M383.3,1305.5h-52c-7.2,0-13,5.8-13,13v15c0,7.2,5.8,13,13,13h52c7.2,0,13-5.8,13-13v-15
				C396.3,1311.3,390.5,1305.5,383.3,1305.5z"/>
			<path class="st39" d="M446.4,1257.6h-52c-7.2,0-13,5.8-13,13v15c0,7.2,5.8,13,13,13h52c7.2,0,13-5.8,13-13v-15
				C459.4,1263.5,453.6,1257.6,446.4,1257.6z"/>
			<path class="st39" d="M476.5,1257.6c-7.2,0-13,5.8-13,13v15c0,7.2,5.8,13,13,13c3,0,5.5-2.4,5.5-5.5v-30.1
				C482,1260.1,479.5,1257.6,476.5,1257.6z"/>
		</g>
	</g>
</g>
</svg>
